<svg width="1024" height="500" viewBox="0 0 1024 500" fill="none" xmlns="http://www.w3.org/2000/svg">
  <defs>
    <linearGradient id="bg" x1="0" y1="0" x2="1024" y2="500" gradientUnits="userSpaceOnUse">
      <stop offset="0" stop-color="#5B7F6B"/>
      <stop offset="0.5" stop-color="#355A4A"/>
      <stop offset="1" stop-color="#203B33"/>
    </linearGradient>
    <radialGradient id="glow1" cx="0.7" cy="0.3" r="0.5">
      <stop offset="0" stop-color="#CFE4D5" stop-opacity="0.2"/>
      <stop offset="1" stop-color="#CFE4D5" stop-opacity="0"/>
    </radialGradient>
    <radialGradient id="glow2" cx="0.2" cy="0.8" r="0.4">
      <stop offset="0" stop-color="#A9D1B6" stop-opacity="0.1"/>
      <stop offset="1" stop-color="#A9D1B6" stop-opacity="0"/>
    </radialGradient>
    <linearGradient id="paper" x1="160" y1="80" x2="380" y2="420" gradientUnits="userSpaceOnUse">
      <stop offset="0" stop-color="#FFF7EA"/>
      <stop offset="1" stop-color="#F3E5CF"/>
    </linearGradient>
    <linearGradient id="bubble" x1="300" y1="60" x2="420" y2="200" gradientUnits="userSpaceOnUse">
      <stop offset="0" stop-color="#FFF0C5"/>
      <stop offset="1" stop-color="#F9C977"/>
    </linearGradient>
    <filter id="shadow" x="80" y="30" width="520" height="460" filterUnits="userSpaceOnUse" color-interpolation-filters="sRGB">
      <feFlood flood-opacity="0" result="BackgroundImageFix"/>
      <feColorMatrix in="SourceAlpha" type="matrix" values="0 0 0 0 0 0 0 0 0 0 0 0 0 0 0 0 0 0 127 0" result="hardAlpha"/>
      <feOffset dy="12"/>
      <feGaussianBlur stdDeviation="16"/>
      <feColorMatrix type="matrix" values="0 0 0 0 0.081 0 0 0 0 0.176 0 0 0 0 0.145 0 0 0 0.3 0"/>
      <feBlend mode="normal" in2="BackgroundImageFix" result="effect1_dropShadow"/>
      <feBlend mode="normal" in="SourceGraphic" in2="effect1_dropShadow" result="shape"/>
    </filter>
  </defs>

  <!-- Background -->
  <rect width="1024" height="500" fill="url(#bg)"/>
  <rect width="1024" height="500" fill="url(#glow1)"/>
  <rect width="1024" height="500" fill="url(#glow2)"/>

  <!-- Decorative circles -->
  <circle cx="180" cy="420" r="100" fill="#A9D1B6" fill-opacity="0.06"/>
  <circle cx="850" cy="80" r="80" fill="#DCE9D7" fill-opacity="0.08"/>

  <!-- Icon (scaled down from app icon) -->
  <g filter="url(#shadow)" transform="translate(-60, -20)">
    <!-- Book page -->
    <path d="M220 150C270 130 330 134 375 165C420 196 450 245 460 290C466 320 462 355 446 384C438 397 422 400 408 393L260 318C246 312 237 298 236 283C232 235 240 192 220 150Z" fill="url(#paper)"/>
    <path d="M240 185C275 168 320 170 352 192C384 214 405 248 413 280" stroke="#D3B892" stroke-width="7" stroke-linecap="round"/>
    <path d="M255 235C286 221 324 225 352 244" stroke="#D3B892" stroke-width="6" stroke-linecap="round"/>
    <path d="M262 282C294 268 330 274 362 292" stroke="#D3B892" stroke-width="6" stroke-linecap="round"/>
    <path d="M268 328C298 316 332 322 364 340" stroke="#D3B892" stroke-width="6" stroke-linecap="round"/>

    <!-- Speech bubble -->
    <path d="M385 110C415 110 440 130 440 155C440 164 437 173 432 180L436 204L414 192C406 197 397 200 385 200C356 200 332 180 332 155C332 132 354 110 385 110Z" fill="url(#bubble)"/>
    <path d="M368 146C378 138 390 134 404 134" stroke="#FFF9EC" stroke-width="9" stroke-linecap="round"/>
    <path d="M362 170C380 157 400 151 422 151" stroke="#FFF9EC" stroke-width="8" stroke-linecap="round" stroke-opacity="0.9"/>
    <path d="M356 192C374 178 396 171 420 171" stroke="#FFF9EC" stroke-width="7" stroke-linecap="round" stroke-opacity="0.75"/>

    <!-- Sound waves -->
    <path d="M455 210C474 218 490 232 498 252" stroke="#D3E5D8" stroke-width="8" stroke-linecap="round" stroke-opacity="0.7"/>
    <path d="M472 194C494 204 512 222 522 246" stroke="#D3E5D8" stroke-width="7" stroke-linecap="round" stroke-opacity="0.45"/>
  </g>

  <!-- App name: 墨声 -->
  <text x="520" y="190" font-family="'PingFang SC', 'Noto Sans SC', 'Hiragino Sans GB', sans-serif" font-size="80" font-weight="600" fill="#F5EDE0" letter-spacing="12">墨声</text>

  <!-- English name -->
  <text x="524" y="240" font-family="'SF Pro Display', 'Helvetica Neue', sans-serif" font-size="28" font-weight="400" fill="#C8D8CC" letter-spacing="5">InkVoice</text>

  <!-- Slogan -->
  <text x="524" y="300" font-family="'PingFang SC', 'Noto Sans SC', 'Hiragino Sans GB', sans-serif" font-size="22" font-weight="300" fill="#B8D4BE" letter-spacing="2">文字有声，触手可及。</text>

  <!-- English slogan -->
  <text x="524" y="340" font-family="'SF Pro Display', 'Helvetica Neue', sans-serif" font-size="18" font-weight="300" fill="#8BAF95" letter-spacing="1">Words with a voice, always within reach.</text>
</svg>
